<svg width="131" height="24" fill="none" xmlns="http://www.w3.org/2000/svg"><path d="M6.2 23.7a91.6 91.6 0 0015 0c3.2-.3 5.8-3.1 6-6.7v-.2c.2-1.8.2-2.6.2-4.4V8.9L23 12.8l-.1 3.5v.5c-.1 1.3-1 2.4-2 2.5-4.8.4-9.6.3-14.4 0-1-.1-1.8-1.2-1.9-2.6v-.4l-.2-4c0-1.7 0-3.5.2-5.3.1-1.3 1-2.4 1.9-2.5h14.2l-6.8 6L11 7.6l-3.3 3 6.2 5.7 13.5-12V0H6.2C3 .3.4 3 .2 6.7L0 12.4c0 1.8 0 2.6.2 4.4v.2c.2 3.6 2.8 6.4 6 6.7z" fill="#38C776"/><path d="M6.2 23.7a91.6 91.6 0 0015 0c3.2-.2 5.8-3 6-6.6v-.3c.2-1.7.2-2.6.2-4.4V9L23 12.8l-.1 3.5v.5c-.1 1.3-1 2.4-2 2.5-4.8.4-9.6.4-14.4 0-1-.1-1.8-1.2-1.9-2.5a811.9 811.9 0 00-.2-4.4c0-1.8 0-3.6.2-5.4.1-1.3 1-2.4 1.9-2.5h14.2l-6.8 6L11 7.6l-3.3 3 6.2 5.7 13.5-12V0H6.2C3 .3.4 3 .2 6.7A80.6 80.6 0 00.2 17c.2 3.6 2.8 6.4 6 6.7z" fill="#2FC774"/><path d="M34.3 20h3.2v-6.8h6.7V20h3.3V3.6h-3.3v6.7h-6.7V3.6h-3.2V20zM54.9 20.2c2.7 0 4.8-1.6 5.3-3.8h-2.8c-.3.8-1.1 1.5-2.5 1.5-1.8 0-2.6-1.2-2.6-2.6V15h8v-2.1c0-3-1.9-5.4-5.4-5.4-3.7 0-5.6 2.4-5.6 5.7v1.6c0 3.4 2.2 5.4 5.6 5.4zm-2.6-7.6c0-1.6.7-2.8 2.6-2.8 1.7 0 2.4 1.1 2.4 2.6v.3h-5zM61.9 20H65V3h-3.2v17zM73.8 7.5c-1.7 0-3 .8-3.5 1.8V7.8h-3V24h3.1v-5.4c.6 1 1.9 1.6 3.5 1.6 3.2 0 5-2.4 5-5.3v-2c0-2.9-1.7-5.4-5-5.4zm-.7 2.6c1.8 0 2.7 1.3 2.7 3v1.6c0 1.7-1 3-2.7 3-1.5 0-2.7-1-2.7-3V13c0-1.7 1-2.9 2.7-2.9zM80.8 3.6V20h6.6c4.4 0 6.7-2.7 6.7-6.4V10c0-3.7-2.3-6.4-6.7-6.4h-6.6zm10 10c0 2.3-1.4 3.7-4 3.7H84v-11h2.8c2.6 0 4 1.3 4 3.7v3.6zM101 20.2c2.7 0 4.8-1.6 5.3-3.8h-2.8c-.3.8-1.2 1.5-2.5 1.5-1.9 0-2.6-1.2-2.6-2.6V15h8v-2.1c0-3-1.9-5.4-5.5-5.4s-5.6 2.4-5.6 5.7v1.6c0 3.4 2.3 5.4 5.7 5.4zm-2.6-7.6c0-1.6.7-2.8 2.5-2.8 1.7 0 2.5 1.1 2.5 2.6v.3h-5zM112.6 20.2c3 0 5.3-1.7 5.3-4 0-1.7-1-2.7-2.7-3.1l-3.7-1c-.7 0-1-.4-1-1 0-.8.7-1.3 2-1.3 1.4 0 2 .7 2 1.6v.2h2.8v-.2c0-2.4-2-3.9-4.8-3.9-2.9 0-5 1.4-5 4 0 1.8 1 2.7 2.8 3.1l3.6.8c.7.2 1 .5 1 1.1 0 1-1 1.5-2.3 1.5-1.5 0-2.4-.6-2.4-1.7v-.2h-2.8v.3c0 2.5 2.1 3.8 5.2 3.8zM119.3 20h3.1v-6l4 6h3.6l-4.3-6.3 4.2-5.9h-3.6l-3.9 5.7V2.9h-3.1v17z" fill="#1B1B20"/></svg>
